<svg width="158" height="28" viewBox="0 0 158 28" fill="none" xmlns="http://www.w3.org/2000/svg">
<g clip-path="url(#clip0)">
<path d="M55.812 9.92507C53.5551 10.2186 52.2355 12.2416 52.2646 14.0872C52.2936 16.4327 53.7019 18.3685 55.9588 18.5443C57.6881 18.6605 59.2707 17.6269 59.7982 16.1697L63.2569 17.2538C62.1438 20.3899 59.2997 22.1789 55.7829 22.0321C51.8838 21.8792 48.63 18.8364 48.63 14.0581C48.63 9.72018 52.2646 6.46636 55.9297 6.3792C60.0581 6.29052 62.2906 8.84097 63.1162 11.2446L59.7447 12.2416C58.6224 10.0719 56.9236 9.80886 55.812 9.92507Z" fill="#474D59"/>
<path d="M68.0902 2.9999V21.5335H64.3088V1.65586C64.3089 1.6184 64.3183 1.58154 64.3362 1.54864C64.3542 1.51574 64.38 1.48784 64.4115 1.46748C64.4429 1.44712 64.479 1.43495 64.5163 1.43206C64.5537 1.42918 64.5911 1.43568 64.6254 1.45097L68.0902 2.9999Z" fill="#474D59"/>
<path d="M69.3807 14.1758C69.3807 8.98772 73.0505 6.55347 76.9434 6.55347C80.8135 6.55347 84.5352 9.01678 84.0963 15.0841L73.0443 15.2018C73.0443 16.3455 74.0703 18.6024 76.7141 18.7186C78.7018 18.8363 79.8502 17.899 80.4954 16.6681L83.8318 17.6697C83.0994 19.4587 80.8135 21.7737 77.0015 21.7737C72.3119 21.7675 69.3807 18.3669 69.3807 14.1758ZM80.344 12.4174C80.344 11.0412 78.8777 9.31035 76.3578 9.51218C74.8028 9.62839 73.3089 10.8012 73.133 12.4434L80.344 12.4174Z" fill="#474D59"/>
<path d="M85.1805 17.9282C84.916 14.9083 86.8808 13.3548 90.0459 12.9159C91.4127 12.6966 92.7913 12.5593 94.1744 12.5046C94.5261 11.8593 94.6438 10.1896 92.6209 9.66211C90.7738 9.19269 89.1621 9.83795 88.6346 11.7141L85.4985 10.8043C85.7325 9.74926 86.494 8.37159 88.3701 7.31654C89.8991 6.46639 92.445 6.17281 94.468 6.93581C97.0184 7.90217 98.1912 9.867 98.1912 11.8594L98.2783 21.4756H94.7325L94.6147 19.7156C94.1533 20.3579 93.552 20.887 92.8561 21.2629C92.1602 21.6388 91.3881 21.8516 90.5979 21.8853C87.5551 22.0321 85.4756 20.422 85.1805 17.9282ZM94.6774 15.4068C91.6576 15.5597 88.757 14.997 88.757 17.2539C88.757 18.6606 90.1331 19.3945 91.9802 18.9832C94.0031 18.5444 94.8823 16.8731 94.6774 15.4068Z" fill="#474D59"/>
<path d="M99.7185 21.4159V7.08259H103.235V9.22327C103.705 8.07954 104.408 7.37617 105.844 6.84865C106.899 6.46792 108.596 6.55507 109.596 7.14223L108.628 10.3379C107.456 9.77984 105.434 9.86852 104.319 11.1285C103.324 12.2722 103.235 13.2401 103.235 17.0505V21.4465L99.7185 21.4159Z" fill="#474D59"/>
<path d="M114.434 8.4953C115.607 6.94178 117.483 6.44331 119.388 6.55952C122.115 6.73689 125.135 8.78735 125.602 13.0091C126.336 19.6054 121.587 22.0091 118.803 21.8623C116.867 21.7736 115.197 20.8944 114.347 19.7507L114.194 21.451L110.794 21.4815L110.858 1.61457C110.858 1.5766 110.867 1.53921 110.885 1.50593C110.904 1.47265 110.93 1.44458 110.962 1.42438C110.994 1.40417 111.031 1.3925 111.069 1.39046C111.107 1.38842 111.145 1.39609 111.179 1.41273L114.434 2.9739V8.4953ZM118.069 18.6085C120.619 18.6956 122.086 16.4968 122.086 14.2705C122.086 11.7491 120.532 9.69714 118.187 9.81487C115.988 9.93108 114.376 11.6023 114.376 14.2109C114.375 15.9877 115.431 18.5136 118.069 18.6023V18.6085Z" fill="#474D59"/>
<path d="M136.8 19.6866C136.479 20.5367 134.836 21.8853 132.228 21.8853C127.335 21.8853 126.864 17.2538 126.864 15.9633V6.96637H130.674V15.5841C130.674 16.9327 131.349 18.604 133.58 18.604C135.514 18.604 136.716 16.9908 136.716 15.76V6.93579H140.497V21.4756H136.95L136.8 19.6866Z" fill="#474D59"/>
<path d="M144.54 27.9525L147.881 20.8302L141.842 6.96631L145.771 6.99536L149.816 16.347L153.567 6.99536H157.494L148.436 27.9541L144.54 27.9525Z" fill="#474D59"/>
<path d="M37.6759 10.5552C37.5103 10.268 37.2719 10.0296 36.9847 9.86405L20.3379 0.253957C20.051 0.087917 19.7253 0.000488281 19.3938 0.000488281C19.0622 0.000488281 18.7365 0.087917 18.4496 0.253957L11.4786 4.27995C11.3351 4.36272 11.2159 4.48183 11.133 4.6253C11.0501 4.76877 11.0065 4.93154 11.0065 5.09723C11.0065 5.26292 11.0501 5.42569 11.133 5.56916C11.2159 5.71263 11.3351 5.83174 11.4786 5.91451L27.6514 15.2524C27.9385 15.4184 28.1769 15.6569 28.3428 15.944C28.5086 16.2312 28.5961 16.5569 28.5963 16.8885V18.4344C28.5963 19.913 29.1178 20.9481 29.9618 21.4298C30.8058 21.9115 31.9725 21.835 33.2615 21.0919C33.9349 20.6925 34.5468 20.1976 35.078 19.6225C35.6469 19.0128 36.1445 18.3402 36.5612 17.6179C37.4052 16.1653 37.9281 14.5261 37.9281 13.0475V11.4986C37.9287 11.1674 37.8416 10.8419 37.6759 10.5552Z" fill="url(#paint0_linear)"/>
<path d="M29.5504 15.2477C29.2589 15.415 29.0169 15.6564 28.849 15.9476C28.6811 16.2387 28.5934 16.5692 28.5947 16.9052V18.4496C28.5947 19.9266 29.1161 20.9618 29.9617 21.4435C30.8073 21.9251 31.9724 21.8487 33.2599 21.1055C34.5489 20.3609 35.7155 19.0887 36.5596 17.6331C37.4036 16.1774 37.9265 14.5383 37.9265 13.0612V11.5046C37.9263 11.3938 37.8969 11.285 37.8413 11.1891C37.7858 11.0932 37.706 11.0135 37.6101 10.9581C37.5141 10.9027 37.4052 10.8734 37.2944 10.8733C37.1836 10.8731 37.0747 10.9021 36.9785 10.9572L33.2599 13.0979L29.5504 15.2477Z" fill="url(#paint1_linear)"/>
<path d="M26.6699 16.8149C26.5035 16.5284 26.2653 16.2902 25.9788 16.1238L9.32895 6.51519C9.04252 6.34838 8.71698 6.2605 8.38552 6.2605C8.05406 6.2605 7.72853 6.34838 7.4421 6.51519L0.469621 10.5397C0.326115 10.6226 0.206965 10.7419 0.124128 10.8855C0.041291 11.0291 -0.00231934 11.1919 -0.00231934 11.3577C-0.00231934 11.5235 0.041291 11.6863 0.124128 11.8299C0.206965 11.9735 0.326115 12.0928 0.469621 12.1757L16.6424 21.5137C16.929 21.6797 17.167 21.918 17.3326 22.2049C17.4981 22.4917 17.5855 22.817 17.5858 23.1482V24.7033C17.5858 26.1819 18.1072 27.2155 18.9513 27.6972C19.7953 28.1788 20.962 28.1039 22.251 27.3592C22.9247 26.9604 23.5367 26.4654 24.0675 25.8898C24.6372 25.2814 25.1349 24.6092 25.5507 23.8868C26.3947 22.4326 26.9176 20.7935 26.9176 19.3149V17.7598C26.9189 17.4287 26.8335 17.1029 26.6699 16.8149Z" fill="url(#paint2_linear)"/>
<path d="M18.5429 21.5075C18.2524 21.6741 18.011 21.9144 17.843 22.204C17.6749 22.4937 17.5862 22.8225 17.5857 23.1574V24.7032C17.5857 26.1803 18.1071 27.217 18.9527 27.6971C19.7982 28.1772 20.9634 28.1038 22.2508 27.3592C23.5398 26.6161 24.7065 25.3439 25.5505 23.8882C26.3946 22.4326 26.9175 20.7934 26.9175 19.3164V17.7659C26.9175 17.655 26.8883 17.546 26.8328 17.4498C26.7774 17.3537 26.6977 17.2739 26.6017 17.2183C26.5057 17.1627 26.3967 17.1333 26.2858 17.1331C26.1748 17.1328 26.0657 17.1618 25.9695 17.217L22.2508 19.3577L18.5429 21.5075Z" fill="url(#paint3_linear)"/>
</g>
<defs>
<linearGradient id="paint0_linear" x1="36.6453" y1="17.4803" x2="11.9434" y2="3.2188" gradientUnits="userSpaceOnUse">
<stop stop-color="#C3DEE6"/>
<stop offset="1" stop-color="#8ACFE6"/>
</linearGradient>
<linearGradient id="paint1_linear" x1="32.2186" y1="13.7065" x2="35.6804" y2="19.7019" gradientUnits="userSpaceOnUse">
<stop stop-opacity="0.15"/>
<stop offset="1" stop-opacity="0"/>
</linearGradient>
<linearGradient id="paint2_linear" x1="25.6378" y1="23.7415" x2="0.935979" y2="9.48003" gradientUnits="userSpaceOnUse">
<stop stop-color="#FF6A00"/>
<stop offset="1" stop-color="#FF0044"/>
</linearGradient>
<linearGradient id="paint3_linear" x1="5278.02" y1="6309.69" x2="5541.11" y2="6700.95" gradientUnits="userSpaceOnUse">
<stop stop-opacity="0.15"/>
<stop offset="1" stop-opacity="0"/>
</linearGradient>
<clipPath id="clip0">
<rect width="157.497" height="28" fill="white"/>
</clipPath>
</defs>
</svg>
