<svg width="192" height="34" viewBox="0 0 192 34" fill="none" xmlns="http://www.w3.org/2000/svg">
<g clip-path="url(#clip0)">
<path d="M67.7717 12.0518C65.0312 12.4083 63.4288 14.8647 63.4641 17.1058C63.4994 19.954 65.2094 22.3046 67.9499 22.5181C70.0498 22.6592 71.9715 21.4041 72.6121 19.6346L76.812 20.951C75.4603 24.7591 72.0068 26.9315 67.7364 26.7532C63.0018 26.5676 59.0507 22.8727 59.0507 17.0705C59.0507 11.803 63.4641 7.85197 67.9146 7.74614C72.9277 7.63845 75.6385 10.7354 76.6412 13.6542L72.5471 14.8647C71.1843 12.2301 69.1215 11.9107 67.7717 12.0518Z" fill="#E1E3E6"/>
<path d="M82.681 3.64289V26.148H78.0894V2.01085C78.0894 1.96535 78.1009 1.9206 78.1226 1.88065C78.1444 1.8407 78.1758 1.80682 78.214 1.7821C78.2522 1.75737 78.2959 1.74259 78.3413 1.73909C78.3866 1.73559 78.4322 1.74348 78.4737 1.76205L82.681 3.64289Z" fill="#E1E3E6"/>
<path d="M84.248 17.2134C84.248 10.9136 88.7041 7.95776 93.4313 7.95776C98.1306 7.95776 102.65 10.9489 102.117 18.3163L88.6967 18.4593C88.6967 19.8481 89.9426 22.5886 93.1528 22.7297C95.5665 22.8727 96.9609 21.7345 97.7444 20.2399L101.796 21.456C100.906 23.6284 98.1306 26.4394 93.5019 26.4394C87.8074 26.432 84.248 22.3027 84.248 17.2134ZM97.5606 15.0782C97.5606 13.4072 95.78 11.3054 92.7202 11.5505C90.8319 11.6916 89.0179 13.1157 88.8044 15.1098L97.5606 15.0782Z" fill="#E1E3E6"/>
<path d="M103.433 21.7699C103.112 18.1029 105.498 16.2165 109.341 15.6836C111.001 15.4173 112.675 15.2505 114.355 15.1842C114.782 14.4006 114.925 12.3731 112.468 11.7325C110.225 11.1625 108.268 11.9461 107.628 14.2242L103.82 13.1195C104.104 11.8384 105.028 10.1655 107.306 8.88436C109.163 7.85203 112.255 7.49554 114.711 8.42203C117.808 9.59547 119.232 11.9813 119.232 14.4006L119.338 26.0775H115.032L114.889 23.9404C114.329 24.7203 113.599 25.3628 112.754 25.8192C111.909 26.2756 110.971 26.5341 110.012 26.5751C106.317 26.7533 103.792 24.7982 103.433 21.7699ZM114.965 18.7082C111.298 18.8939 107.776 18.2106 107.776 20.9511C107.776 22.6593 109.447 23.5505 111.69 23.051C114.147 22.5182 115.214 20.4888 114.965 18.7082Z" fill="#E1E3E6"/>
<path d="M121.087 26.005V8.60028H125.357V11.1997C125.927 9.81085 126.781 8.95676 128.525 8.3162C129.806 7.85388 131.867 7.95971 133.081 8.67269L131.906 12.5532C130.482 11.8755 128.027 11.9832 126.674 13.5131C125.465 14.9019 125.357 16.0772 125.357 20.7041V26.0422L121.087 26.005Z" fill="#E1E3E6"/>
<path d="M138.956 10.3159C140.38 8.42952 142.658 7.82423 144.972 7.96534C148.282 8.18072 151.949 10.6706 152.517 15.7969C153.409 23.8068 147.642 26.7255 144.261 26.5473C141.91 26.4396 139.882 25.372 138.85 23.9831L138.664 26.0478L134.535 26.0849L134.613 1.96075C134.613 1.91465 134.624 1.86925 134.647 1.82884C134.669 1.78843 134.701 1.75435 134.74 1.72981C134.779 1.70528 134.824 1.6911 134.87 1.68862C134.916 1.68615 134.962 1.69546 135.003 1.71567L138.956 3.61137V10.3159ZM143.369 22.5962C146.466 22.702 148.247 20.0321 148.247 17.3287C148.247 14.267 146.36 11.7753 143.512 11.9183C140.842 12.0594 138.885 14.0888 138.885 17.2563C138.884 19.4138 140.166 22.4811 143.369 22.5888V22.5962Z" fill="#E1E3E6"/>
<path d="M166.114 23.9052C165.724 24.9375 163.73 26.5751 160.562 26.5751C154.621 26.5751 154.049 20.9512 154.049 19.3841V8.45926H158.676V18.9236C158.676 20.5613 159.495 22.5906 162.204 22.5906C164.552 22.5906 166.012 20.6318 166.012 19.1372V8.42212H170.603V26.0775H166.296L166.114 23.9052Z" fill="#E1E3E6"/>
<path d="M175.513 33.9425L179.569 25.294L172.237 8.45923L177.007 8.49451L181.92 19.8501L186.475 8.49451H191.243L180.243 33.9444L175.513 33.9425Z" fill="#E1E3E6"/>
<path d="M45.7493 12.8169C45.5482 12.4682 45.2587 12.1787 44.91 11.9777L24.6961 0.308272C24.3476 0.106652 23.9521 0.000488281 23.5495 0.000488281C23.147 0.000488281 22.7515 0.106652 22.403 0.308272L13.9383 5.19698C13.764 5.29748 13.6193 5.44212 13.5186 5.61633C13.418 5.79055 13.365 5.98819 13.365 6.18939C13.365 6.39058 13.418 6.58823 13.5186 6.76244C13.6193 6.93666 13.764 7.08129 13.9383 7.1818L33.5767 18.5207C33.9253 18.7222 34.2148 19.0118 34.4162 19.3605C34.6176 19.7092 34.7238 20.1047 34.7241 20.5074V22.3845C34.7241 24.1799 35.3573 25.4369 36.3822 26.0218C37.4071 26.6067 38.8237 26.5138 40.3889 25.6115C41.2067 25.1266 41.9497 24.5255 42.5947 23.8272C43.2856 23.0868 43.8898 22.2702 44.3957 21.393C45.4206 19.6291 46.0556 17.6388 46.0556 15.8433V13.9625C46.0562 13.5603 45.9505 13.1651 45.7493 12.8169Z" fill="url(#paint0_linear)"/>
<path d="M35.8827 18.515C35.5288 18.718 35.2349 19.0112 35.0311 19.3648C34.8272 19.7183 34.7207 20.1195 34.7223 20.5276V22.4029C34.7223 24.1965 35.3554 25.4535 36.3822 26.0383C37.409 26.6232 38.8238 26.5304 40.3871 25.628C41.9523 24.7238 43.369 23.179 44.3939 21.4114C45.4188 19.6438 46.0538 17.6534 46.0538 15.8599V13.9697C46.0534 13.8352 46.0177 13.703 45.9503 13.5866C45.8829 13.4701 45.786 13.3734 45.6695 13.3061C45.5529 13.2388 45.4208 13.2033 45.2862 13.2031C45.1516 13.2029 45.0194 13.2381 44.9026 13.305L40.3871 15.9044L35.8827 18.515Z" fill="url(#paint1_linear)"/>
<path d="M32.3847 20.4181C32.1825 20.0702 31.8933 19.781 31.5454 19.5789L11.3278 7.91132C10.98 7.70877 10.5847 7.60205 10.1822 7.60205C9.77969 7.60205 9.3844 7.70877 9.0366 7.91132L0.570018 12.7982C0.395762 12.8989 0.251079 13.0438 0.150491 13.2181C0.0499036 13.3925 -0.00305176 13.5902 -0.00305176 13.7915C-0.00305176 13.9928 0.0499036 14.1906 0.150491 14.3649C0.251079 14.5393 0.395762 14.6841 0.570018 14.7849L20.2084 26.1238C20.5564 26.3253 20.8454 26.6148 21.0464 26.9631C21.2475 27.3114 21.3535 27.7064 21.354 28.1086V29.9968C21.354 31.7923 21.9871 33.0474 23.012 33.6323C24.0369 34.2171 25.4536 34.1262 27.0188 33.2219C27.8369 32.7376 28.58 32.1366 29.2246 31.4377C29.9164 30.6988 30.5207 29.8826 31.0256 29.0054C32.0505 27.2396 32.6855 25.2492 32.6855 23.4538V21.5655C32.687 21.1634 32.5833 20.7678 32.3847 20.4181Z" fill="url(#paint2_linear)"/>
<path d="M22.5163 26.1165C22.1636 26.3188 21.8704 26.6106 21.6664 26.9623C21.4623 27.314 21.3546 27.7133 21.354 28.1199V29.997C21.354 31.7906 21.9871 33.0495 23.0139 33.6325C24.0407 34.2155 25.4555 34.1264 27.0188 33.2221C28.584 32.3198 30.0007 30.775 31.0256 29.0074C32.0505 27.2398 32.6855 25.2494 32.6855 23.4559V21.5732C32.6855 21.4384 32.65 21.3061 32.5827 21.1894C32.5154 21.0726 32.4186 20.9757 32.302 20.9082C32.1854 20.8406 32.0531 20.805 31.9184 20.8047C31.7836 20.8044 31.6512 20.8396 31.5343 20.9066L27.0188 23.506L22.5163 26.1165Z" fill="url(#paint3_linear)"/>
</g>
<defs>
<linearGradient id="paint0_linear" x1="44.4978" y1="21.2259" x2="14.5027" y2="3.90843" gradientUnits="userSpaceOnUse">
<stop stop-color="#C3DEE6"/>
<stop offset="1" stop-color="#8ACFE6"/>
</linearGradient>
<linearGradient id="paint1_linear" x1="39.1227" y1="16.6434" x2="43.3263" y2="23.9235" gradientUnits="userSpaceOnUse">
<stop stop-opacity="0.15"/>
<stop offset="1" stop-opacity="0"/>
</linearGradient>
<linearGradient id="paint2_linear" x1="31.1314" y1="28.829" x2="1.13631" y2="11.5115" gradientUnits="userSpaceOnUse">
<stop stop-color="#FF6A00"/>
<stop offset="1" stop-color="#FF0044"/>
</linearGradient>
<linearGradient id="paint3_linear" x1="6409.02" y1="7661.76" x2="6728.49" y2="8136.87" gradientUnits="userSpaceOnUse">
<stop stop-opacity="0.15"/>
<stop offset="1" stop-opacity="0"/>
</linearGradient>
<clipPath id="clip0">
<rect width="191.246" height="34" fill="white"/>
</clipPath>
</defs>
</svg>
